<svg xmlns="http://www.w3.org/2000/svg" viewBox="0 0 64 64" width="64" height="64">
  <defs>
    <radialGradient id="g" cx="50%" cy="38%" r="72%">
      <stop offset="0%" stop-color="#522f12"/>
      <stop offset="100%" stop-color="#0e1016"/>
    </radialGradient>
  </defs>
  <rect width="64" height="64" rx="9" fill="url(#g)"/>
  <rect x="1.25" y="1.25" width="61.5" height="61.5" rx="8" fill="none" stroke="#f08b35" stroke-width="1.5" opacity=".5"/>
  <g opacity="1">
        <path d="M20 58 L18 34 C18 30 23 29 24 33 L26 40 L26 14 C26 10 32 10 32 14 L32 34 L34 12 C34 8 40 8 40 12 L40 34 L43 18 C44 14 49 15 48 19 L46 44 C45 53 39 58 32 58 Z" fill="#f08b35"/>
        <circle cx="32" cy="10" r="5" fill="#ffbc48" opacity=".8"/>
  </g>
</svg>
